<mxfile host="app.diagrams.net" modified="2024-03-13T02:39:29.635Z" agent="Mozilla/5.0 (Macintosh; Intel Mac OS X 10_15_7) AppleWebKit/537.36 (KHTML, like Gecko) Chrome/122.0.0.0 Safari/537.36" version="24.0.3" etag="poQaLiYtGE09-hBD75Sc" type="github">
  <diagram name="第 1 页" id="kCjeMPq1AZ8Hevvx8neQ">
    <mxGraphModel>
      <root>
        <mxCell id="0" />
        <mxCell id="1" parent="0" />
      </root>
    </mxGraphModel>
  </diagram>
</mxfile>
